<svg width="20" height="20" viewBox="0 0 20 20" fill="none" xmlns="http://www.w3.org/2000/svg">
<circle cx="10" cy="10" r="10" fill="#4B6DAA"/>
<path fill-rule="evenodd" clip-rule="evenodd" d="M7.434 14.1654C7.28403 14.0154 7.19978 13.812 7.19978 13.5998C7.19978 13.3877 7.28403 13.1843 7.434 13.0342L10.0684 10.3998L7.434 7.76544C7.28828 7.61456 7.20764 7.41247 7.20947 7.20272C7.21129 6.99296 7.29542 6.79231 7.44375 6.64398C7.59208 6.49566 7.79273 6.41152 8.00248 6.4097C8.21224 6.40788 8.41432 6.48851 8.5652 6.63424L11.7652 9.83424C11.9152 9.98426 11.9994 10.1877 11.9994 10.3998C11.9994 10.612 11.9152 10.8154 11.7652 10.9654L8.5652 14.1654C8.41518 14.3154 8.21174 14.3997 7.9996 14.3997C7.78747 14.3997 7.58403 14.3154 7.434 14.1654Z" fill="white"/>
</svg>
